M48
;GenerationSoftware,Autodesk,EAGLE,9.6.2*%
;CreationDate,2024-02-06T14:21:43Z*%
FMAT,2
ICI,OFF
METRIC,TZ,000.000
T2C0.813
T1C1.000
%
G90
M71
T1
X2540Y123190
X52070Y123190
X52070Y2540
X2540Y2540
X2540Y74930
X52070Y74930
X48260Y33020
X50800Y33020
X6350Y66040
X22860Y58420
X8890Y66040
X11430Y66040
X40640Y66040
X45720Y66040
X39370Y116840
X41910Y116840
X44450Y116840
X46990Y116840
X22860Y116840
X25400Y116840
X27940Y116840
X30480Y116840
X24130Y101600
X26670Y101600
X29210Y101600
X6350Y116840
X8890Y116840
X11430Y116840
X13970Y116840
X3810Y25400
X6350Y25400
X3810Y33020
X6350Y33020
X22860Y71120
X22860Y68580
X22860Y66040
X22860Y63500
X22860Y60960
X43180Y66040
X22860Y55880
X22860Y53340
X22860Y50800
X22860Y48260
X22860Y45720
X30480Y71120
X30480Y68580
X30480Y66040
X30480Y63500
X30480Y60960
X30480Y58420
X30480Y55880
X30480Y53340
X30480Y50800
X30480Y48260
X30480Y45720
X36830Y101600
X39370Y101600
X41910Y101600
X48260Y25400
X50800Y25400
X11430Y101600
X13970Y101600
X16510Y101600
T2
X49530Y44450
X5080Y45720
X2540Y45720
X44450Y90170
X52070Y90170
X10160Y95250
X17780Y95250
X8890Y41910
X8890Y49530
X44450Y86360
X52070Y86360
X43180Y40640
X43180Y48260
X46990Y44450
M30