G04 EAGLE Gerber RS-274X export*
G75*
%MOMM*%
%FSLAX34Y34*%
%LPD*%
%INTop Copper*%
%IPPOS*%
%AMOC8*
5,1,8,0,0,1.08239X$1,22.5*%
G01*
%ADD10C,0.130000*%
%ADD11C,0.152400*%
%ADD12C,1.508000*%
%ADD13C,1.320800*%
%ADD14P,1.429621X8X22.500000*%
%ADD15P,1.429621X8X112.500000*%


D10*
X0Y0D02*
X-95700Y0D01*
X-95700Y1257300D02*
X0Y1257300D01*
X-76200Y1256650D02*
X-76200Y650D01*
X-79392Y26000D01*
X-73008Y26000D01*
X-76200Y650D01*
X-77500Y26000D01*
X-74900Y26000D02*
X-76200Y650D01*
X-78800Y26000D01*
X-73600Y26000D02*
X-76200Y650D01*
X-79392Y1231300D02*
X-76200Y1256650D01*
X-79392Y1231300D02*
X-73008Y1231300D01*
X-76200Y1256650D01*
X-77500Y1231300D01*
X-74900Y1231300D02*
X-76200Y1256650D01*
X-78800Y1231300D01*
X-73600Y1231300D02*
X-76200Y1256650D01*
D11*
X-98963Y595011D02*
X-95351Y590495D01*
X-98963Y595011D02*
X-82707Y595011D01*
X-82707Y599526D02*
X-82707Y590495D01*
X-98963Y611094D02*
X-98961Y611219D01*
X-98955Y611344D01*
X-98946Y611469D01*
X-98932Y611593D01*
X-98915Y611717D01*
X-98894Y611841D01*
X-98869Y611963D01*
X-98840Y612085D01*
X-98808Y612206D01*
X-98772Y612326D01*
X-98732Y612445D01*
X-98689Y612562D01*
X-98642Y612678D01*
X-98591Y612793D01*
X-98537Y612905D01*
X-98479Y613017D01*
X-98419Y613126D01*
X-98354Y613233D01*
X-98287Y613339D01*
X-98216Y613442D01*
X-98142Y613543D01*
X-98065Y613642D01*
X-97985Y613738D01*
X-97902Y613832D01*
X-97817Y613923D01*
X-97728Y614012D01*
X-97637Y614097D01*
X-97543Y614180D01*
X-97447Y614260D01*
X-97348Y614337D01*
X-97247Y614411D01*
X-97144Y614482D01*
X-97038Y614549D01*
X-96931Y614614D01*
X-96822Y614674D01*
X-96710Y614732D01*
X-96598Y614786D01*
X-96483Y614837D01*
X-96367Y614884D01*
X-96250Y614927D01*
X-96131Y614967D01*
X-96011Y615003D01*
X-95890Y615035D01*
X-95768Y615064D01*
X-95646Y615089D01*
X-95522Y615110D01*
X-95398Y615127D01*
X-95274Y615141D01*
X-95149Y615150D01*
X-95024Y615156D01*
X-94899Y615158D01*
X-98963Y611094D02*
X-98961Y610951D01*
X-98955Y610809D01*
X-98945Y610666D01*
X-98932Y610524D01*
X-98914Y610383D01*
X-98893Y610241D01*
X-98868Y610101D01*
X-98839Y609961D01*
X-98806Y609822D01*
X-98769Y609684D01*
X-98729Y609547D01*
X-98685Y609412D01*
X-98637Y609277D01*
X-98585Y609144D01*
X-98530Y609012D01*
X-98471Y608882D01*
X-98409Y608754D01*
X-98343Y608627D01*
X-98274Y608502D01*
X-98202Y608379D01*
X-98126Y608259D01*
X-98047Y608140D01*
X-97964Y608023D01*
X-97879Y607909D01*
X-97790Y607797D01*
X-97699Y607688D01*
X-97604Y607581D01*
X-97507Y607476D01*
X-97406Y607375D01*
X-97303Y607276D01*
X-97198Y607180D01*
X-97089Y607087D01*
X-96978Y606997D01*
X-96865Y606910D01*
X-96750Y606826D01*
X-96632Y606746D01*
X-96512Y606668D01*
X-96390Y606594D01*
X-96266Y606524D01*
X-96140Y606456D01*
X-96012Y606393D01*
X-95883Y606332D01*
X-95752Y606275D01*
X-95620Y606222D01*
X-95486Y606173D01*
X-95351Y606127D01*
X-91738Y613802D02*
X-91830Y613896D01*
X-91924Y613986D01*
X-92021Y614074D01*
X-92121Y614159D01*
X-92223Y614241D01*
X-92328Y614320D01*
X-92435Y614395D01*
X-92544Y614467D01*
X-92655Y614536D01*
X-92769Y614602D01*
X-92884Y614664D01*
X-93001Y614723D01*
X-93120Y614778D01*
X-93240Y614829D01*
X-93362Y614877D01*
X-93485Y614922D01*
X-93609Y614962D01*
X-93735Y614999D01*
X-93862Y615032D01*
X-93989Y615061D01*
X-94118Y615087D01*
X-94247Y615108D01*
X-94377Y615126D01*
X-94507Y615139D01*
X-94637Y615149D01*
X-94768Y615155D01*
X-94899Y615157D01*
X-91738Y613803D02*
X-82707Y606126D01*
X-82707Y615158D01*
X-82707Y621758D02*
X-82707Y627176D01*
X-82709Y627294D01*
X-82715Y627412D01*
X-82724Y627530D01*
X-82738Y627647D01*
X-82755Y627764D01*
X-82776Y627881D01*
X-82801Y627996D01*
X-82830Y628111D01*
X-82863Y628225D01*
X-82899Y628337D01*
X-82939Y628448D01*
X-82982Y628558D01*
X-83029Y628667D01*
X-83079Y628774D01*
X-83134Y628879D01*
X-83191Y628982D01*
X-83252Y629083D01*
X-83316Y629183D01*
X-83383Y629280D01*
X-83453Y629375D01*
X-83527Y629467D01*
X-83603Y629558D01*
X-83683Y629645D01*
X-83765Y629730D01*
X-83850Y629812D01*
X-83937Y629892D01*
X-84028Y629968D01*
X-84120Y630042D01*
X-84215Y630112D01*
X-84312Y630179D01*
X-84412Y630243D01*
X-84513Y630304D01*
X-84616Y630361D01*
X-84721Y630416D01*
X-84828Y630466D01*
X-84937Y630513D01*
X-85047Y630556D01*
X-85158Y630596D01*
X-85270Y630632D01*
X-85384Y630665D01*
X-85499Y630694D01*
X-85614Y630719D01*
X-85731Y630740D01*
X-85848Y630757D01*
X-85965Y630771D01*
X-86083Y630780D01*
X-86201Y630786D01*
X-86319Y630788D01*
X-86319Y630789D02*
X-88126Y630789D01*
X-88126Y630788D02*
X-88244Y630786D01*
X-88362Y630780D01*
X-88480Y630771D01*
X-88597Y630757D01*
X-88714Y630740D01*
X-88831Y630719D01*
X-88946Y630694D01*
X-89061Y630665D01*
X-89175Y630632D01*
X-89287Y630596D01*
X-89398Y630556D01*
X-89508Y630513D01*
X-89617Y630466D01*
X-89724Y630416D01*
X-89829Y630361D01*
X-89932Y630304D01*
X-90033Y630243D01*
X-90133Y630179D01*
X-90230Y630112D01*
X-90325Y630042D01*
X-90417Y629968D01*
X-90508Y629892D01*
X-90595Y629812D01*
X-90680Y629730D01*
X-90762Y629645D01*
X-90842Y629558D01*
X-90918Y629467D01*
X-90992Y629375D01*
X-91062Y629280D01*
X-91129Y629183D01*
X-91193Y629083D01*
X-91254Y628982D01*
X-91311Y628879D01*
X-91366Y628774D01*
X-91416Y628667D01*
X-91463Y628558D01*
X-91506Y628448D01*
X-91546Y628337D01*
X-91582Y628225D01*
X-91615Y628111D01*
X-91644Y627996D01*
X-91669Y627881D01*
X-91690Y627764D01*
X-91707Y627647D01*
X-91721Y627530D01*
X-91730Y627412D01*
X-91736Y627294D01*
X-91738Y627176D01*
X-91738Y621758D01*
X-98963Y621758D01*
X-98963Y630789D01*
X-83610Y636763D02*
X-82707Y636763D01*
X-83610Y636763D02*
X-83610Y637667D01*
X-82707Y637667D01*
X-82707Y636763D01*
X-97157Y643641D02*
X-98963Y643641D01*
X-98963Y652672D01*
X-82707Y648157D01*
X-82707Y659273D02*
X-82707Y663788D01*
X-82709Y663921D01*
X-82715Y664053D01*
X-82725Y664185D01*
X-82738Y664317D01*
X-82756Y664449D01*
X-82777Y664579D01*
X-82802Y664710D01*
X-82831Y664839D01*
X-82864Y664967D01*
X-82900Y665095D01*
X-82940Y665221D01*
X-82984Y665346D01*
X-83032Y665470D01*
X-83083Y665592D01*
X-83138Y665713D01*
X-83196Y665832D01*
X-83258Y665950D01*
X-83323Y666065D01*
X-83392Y666179D01*
X-83463Y666290D01*
X-83539Y666399D01*
X-83617Y666506D01*
X-83698Y666611D01*
X-83783Y666713D01*
X-83870Y666813D01*
X-83960Y666910D01*
X-84053Y667005D01*
X-84149Y667096D01*
X-84247Y667185D01*
X-84348Y667271D01*
X-84452Y667354D01*
X-84558Y667434D01*
X-84666Y667510D01*
X-84776Y667584D01*
X-84889Y667654D01*
X-85003Y667721D01*
X-85120Y667784D01*
X-85238Y667844D01*
X-85358Y667901D01*
X-85480Y667954D01*
X-85603Y668003D01*
X-85727Y668049D01*
X-85853Y668091D01*
X-85980Y668129D01*
X-86108Y668164D01*
X-86237Y668195D01*
X-86366Y668222D01*
X-86497Y668245D01*
X-86628Y668265D01*
X-86760Y668280D01*
X-86892Y668292D01*
X-87024Y668300D01*
X-87157Y668304D01*
X-87289Y668304D01*
X-87422Y668300D01*
X-87554Y668292D01*
X-87686Y668280D01*
X-87818Y668265D01*
X-87949Y668245D01*
X-88080Y668222D01*
X-88209Y668195D01*
X-88338Y668164D01*
X-88466Y668129D01*
X-88593Y668091D01*
X-88719Y668049D01*
X-88843Y668003D01*
X-88966Y667954D01*
X-89088Y667901D01*
X-89208Y667844D01*
X-89326Y667784D01*
X-89443Y667721D01*
X-89557Y667654D01*
X-89670Y667584D01*
X-89780Y667510D01*
X-89888Y667434D01*
X-89994Y667354D01*
X-90098Y667271D01*
X-90199Y667185D01*
X-90297Y667096D01*
X-90393Y667005D01*
X-90486Y666910D01*
X-90576Y666813D01*
X-90663Y666713D01*
X-90748Y666611D01*
X-90829Y666506D01*
X-90907Y666399D01*
X-90983Y666290D01*
X-91054Y666179D01*
X-91123Y666065D01*
X-91188Y665950D01*
X-91250Y665832D01*
X-91308Y665713D01*
X-91363Y665592D01*
X-91414Y665470D01*
X-91462Y665346D01*
X-91506Y665221D01*
X-91546Y665095D01*
X-91582Y664967D01*
X-91615Y664839D01*
X-91644Y664710D01*
X-91669Y664579D01*
X-91690Y664449D01*
X-91708Y664317D01*
X-91721Y664185D01*
X-91731Y664053D01*
X-91737Y663921D01*
X-91739Y663788D01*
X-98963Y664691D02*
X-98963Y659273D01*
X-98963Y664691D02*
X-98961Y664810D01*
X-98955Y664930D01*
X-98945Y665049D01*
X-98931Y665167D01*
X-98914Y665286D01*
X-98892Y665403D01*
X-98867Y665520D01*
X-98837Y665635D01*
X-98804Y665750D01*
X-98767Y665864D01*
X-98727Y665976D01*
X-98682Y666087D01*
X-98634Y666196D01*
X-98583Y666304D01*
X-98528Y666410D01*
X-98469Y666514D01*
X-98407Y666616D01*
X-98342Y666716D01*
X-98273Y666814D01*
X-98201Y666910D01*
X-98126Y667003D01*
X-98049Y667093D01*
X-97968Y667181D01*
X-97884Y667266D01*
X-97797Y667348D01*
X-97708Y667428D01*
X-97616Y667504D01*
X-97522Y667578D01*
X-97425Y667648D01*
X-97327Y667715D01*
X-97226Y667779D01*
X-97122Y667839D01*
X-97017Y667896D01*
X-96910Y667949D01*
X-96802Y667999D01*
X-96692Y668045D01*
X-96580Y668087D01*
X-96467Y668126D01*
X-96353Y668161D01*
X-96238Y668192D01*
X-96121Y668220D01*
X-96004Y668243D01*
X-95887Y668263D01*
X-95768Y668279D01*
X-95649Y668291D01*
X-95530Y668299D01*
X-95411Y668303D01*
X-95291Y668303D01*
X-95172Y668299D01*
X-95053Y668291D01*
X-94934Y668279D01*
X-94815Y668263D01*
X-94698Y668243D01*
X-94581Y668220D01*
X-94464Y668192D01*
X-94349Y668161D01*
X-94235Y668126D01*
X-94122Y668087D01*
X-94010Y668045D01*
X-93900Y667999D01*
X-93792Y667949D01*
X-93685Y667896D01*
X-93580Y667839D01*
X-93476Y667779D01*
X-93375Y667715D01*
X-93277Y667648D01*
X-93180Y667578D01*
X-93086Y667504D01*
X-92994Y667428D01*
X-92905Y667348D01*
X-92818Y667266D01*
X-92734Y667181D01*
X-92653Y667093D01*
X-92576Y667003D01*
X-92501Y666910D01*
X-92429Y666814D01*
X-92360Y666716D01*
X-92295Y666616D01*
X-92233Y666514D01*
X-92174Y666410D01*
X-92119Y666304D01*
X-92068Y666196D01*
X-92020Y666087D01*
X-91975Y665976D01*
X-91935Y665864D01*
X-91898Y665750D01*
X-91865Y665635D01*
X-91835Y665520D01*
X-91810Y665403D01*
X-91788Y665286D01*
X-91771Y665167D01*
X-91757Y665049D01*
X-91747Y664930D01*
X-91741Y664810D01*
X-91739Y664691D01*
X-91738Y664691D02*
X-91738Y661079D01*
D10*
X0Y0D02*
X0Y-298900D01*
X546100Y-298900D02*
X546100Y0D01*
X545450Y-279400D02*
X650Y-279400D01*
X26000Y-276208D01*
X26000Y-282592D01*
X650Y-279400D01*
X26000Y-278100D01*
X26000Y-280700D02*
X650Y-279400D01*
X26000Y-276800D01*
X26000Y-282000D02*
X650Y-279400D01*
X520100Y-276208D02*
X545450Y-279400D01*
X520100Y-276208D02*
X520100Y-282592D01*
X545450Y-279400D01*
X520100Y-278100D01*
X520100Y-280700D02*
X545450Y-279400D01*
X520100Y-276800D01*
X520100Y-282000D02*
X545450Y-279400D01*
D11*
X247410Y-272893D02*
X241991Y-272893D01*
X247410Y-272893D02*
X247528Y-272891D01*
X247646Y-272885D01*
X247764Y-272876D01*
X247881Y-272862D01*
X247998Y-272845D01*
X248115Y-272824D01*
X248230Y-272799D01*
X248345Y-272770D01*
X248459Y-272737D01*
X248571Y-272701D01*
X248682Y-272661D01*
X248792Y-272618D01*
X248901Y-272571D01*
X249008Y-272521D01*
X249113Y-272466D01*
X249216Y-272409D01*
X249317Y-272348D01*
X249417Y-272284D01*
X249514Y-272217D01*
X249609Y-272147D01*
X249701Y-272073D01*
X249792Y-271997D01*
X249879Y-271917D01*
X249964Y-271835D01*
X250046Y-271750D01*
X250126Y-271663D01*
X250202Y-271572D01*
X250276Y-271480D01*
X250346Y-271385D01*
X250413Y-271288D01*
X250477Y-271188D01*
X250538Y-271087D01*
X250595Y-270984D01*
X250650Y-270879D01*
X250700Y-270772D01*
X250747Y-270663D01*
X250790Y-270553D01*
X250830Y-270442D01*
X250866Y-270330D01*
X250899Y-270216D01*
X250928Y-270101D01*
X250953Y-269986D01*
X250974Y-269869D01*
X250991Y-269752D01*
X251005Y-269635D01*
X251014Y-269517D01*
X251020Y-269399D01*
X251022Y-269281D01*
X251022Y-267474D01*
X251020Y-267356D01*
X251014Y-267238D01*
X251005Y-267120D01*
X250991Y-267003D01*
X250974Y-266886D01*
X250953Y-266769D01*
X250928Y-266654D01*
X250899Y-266539D01*
X250866Y-266425D01*
X250830Y-266313D01*
X250790Y-266202D01*
X250747Y-266092D01*
X250700Y-265983D01*
X250650Y-265876D01*
X250595Y-265771D01*
X250538Y-265668D01*
X250477Y-265567D01*
X250413Y-265467D01*
X250346Y-265370D01*
X250276Y-265275D01*
X250202Y-265183D01*
X250126Y-265092D01*
X250046Y-265005D01*
X249964Y-264920D01*
X249879Y-264838D01*
X249792Y-264758D01*
X249701Y-264682D01*
X249609Y-264608D01*
X249514Y-264538D01*
X249417Y-264471D01*
X249317Y-264407D01*
X249216Y-264346D01*
X249113Y-264289D01*
X249008Y-264234D01*
X248901Y-264184D01*
X248792Y-264137D01*
X248682Y-264094D01*
X248571Y-264054D01*
X248459Y-264018D01*
X248345Y-263985D01*
X248230Y-263956D01*
X248115Y-263931D01*
X247998Y-263910D01*
X247881Y-263893D01*
X247764Y-263879D01*
X247646Y-263870D01*
X247528Y-263864D01*
X247410Y-263862D01*
X241991Y-263862D01*
X241991Y-256637D01*
X251022Y-256637D01*
X261235Y-256637D02*
X257623Y-269281D01*
X266654Y-269281D01*
X263944Y-272893D02*
X263944Y-265668D01*
X272628Y-271990D02*
X272628Y-272893D01*
X272628Y-271990D02*
X273531Y-271990D01*
X273531Y-272893D01*
X272628Y-272893D01*
X279506Y-263862D02*
X284925Y-263862D01*
X285043Y-263864D01*
X285161Y-263870D01*
X285279Y-263879D01*
X285396Y-263893D01*
X285513Y-263910D01*
X285630Y-263931D01*
X285745Y-263956D01*
X285860Y-263985D01*
X285974Y-264018D01*
X286086Y-264054D01*
X286197Y-264094D01*
X286307Y-264137D01*
X286416Y-264184D01*
X286523Y-264234D01*
X286628Y-264289D01*
X286731Y-264346D01*
X286832Y-264407D01*
X286932Y-264471D01*
X287029Y-264538D01*
X287124Y-264608D01*
X287216Y-264682D01*
X287307Y-264758D01*
X287394Y-264838D01*
X287479Y-264920D01*
X287561Y-265005D01*
X287641Y-265092D01*
X287717Y-265183D01*
X287791Y-265275D01*
X287861Y-265370D01*
X287928Y-265467D01*
X287992Y-265567D01*
X288053Y-265668D01*
X288110Y-265771D01*
X288165Y-265876D01*
X288215Y-265983D01*
X288262Y-266092D01*
X288305Y-266202D01*
X288345Y-266313D01*
X288381Y-266425D01*
X288414Y-266539D01*
X288443Y-266654D01*
X288468Y-266769D01*
X288489Y-266886D01*
X288506Y-267003D01*
X288520Y-267120D01*
X288529Y-267238D01*
X288535Y-267356D01*
X288537Y-267474D01*
X288537Y-268377D01*
X288538Y-268377D02*
X288536Y-268510D01*
X288530Y-268642D01*
X288520Y-268774D01*
X288507Y-268906D01*
X288489Y-269038D01*
X288468Y-269168D01*
X288443Y-269299D01*
X288414Y-269428D01*
X288381Y-269556D01*
X288345Y-269684D01*
X288305Y-269810D01*
X288261Y-269935D01*
X288213Y-270059D01*
X288162Y-270181D01*
X288107Y-270302D01*
X288049Y-270421D01*
X287987Y-270539D01*
X287922Y-270654D01*
X287853Y-270768D01*
X287782Y-270879D01*
X287706Y-270988D01*
X287628Y-271095D01*
X287547Y-271200D01*
X287462Y-271302D01*
X287375Y-271402D01*
X287285Y-271499D01*
X287192Y-271594D01*
X287096Y-271685D01*
X286998Y-271774D01*
X286897Y-271860D01*
X286793Y-271943D01*
X286687Y-272023D01*
X286579Y-272099D01*
X286469Y-272173D01*
X286356Y-272243D01*
X286242Y-272310D01*
X286125Y-272373D01*
X286007Y-272433D01*
X285887Y-272490D01*
X285765Y-272543D01*
X285642Y-272592D01*
X285518Y-272638D01*
X285392Y-272680D01*
X285265Y-272718D01*
X285137Y-272753D01*
X285008Y-272784D01*
X284879Y-272811D01*
X284748Y-272834D01*
X284617Y-272854D01*
X284485Y-272869D01*
X284353Y-272881D01*
X284221Y-272889D01*
X284088Y-272893D01*
X283956Y-272893D01*
X283823Y-272889D01*
X283691Y-272881D01*
X283559Y-272869D01*
X283427Y-272854D01*
X283296Y-272834D01*
X283165Y-272811D01*
X283036Y-272784D01*
X282907Y-272753D01*
X282779Y-272718D01*
X282652Y-272680D01*
X282526Y-272638D01*
X282402Y-272592D01*
X282279Y-272543D01*
X282157Y-272490D01*
X282037Y-272433D01*
X281919Y-272373D01*
X281802Y-272310D01*
X281688Y-272243D01*
X281575Y-272173D01*
X281465Y-272099D01*
X281357Y-272023D01*
X281251Y-271943D01*
X281147Y-271860D01*
X281046Y-271774D01*
X280948Y-271685D01*
X280852Y-271594D01*
X280759Y-271499D01*
X280669Y-271402D01*
X280582Y-271302D01*
X280497Y-271200D01*
X280416Y-271095D01*
X280338Y-270988D01*
X280262Y-270879D01*
X280191Y-270768D01*
X280122Y-270654D01*
X280057Y-270539D01*
X279995Y-270421D01*
X279937Y-270302D01*
X279882Y-270181D01*
X279831Y-270059D01*
X279783Y-269935D01*
X279739Y-269810D01*
X279699Y-269684D01*
X279663Y-269556D01*
X279630Y-269428D01*
X279601Y-269299D01*
X279576Y-269168D01*
X279555Y-269038D01*
X279537Y-268906D01*
X279524Y-268774D01*
X279514Y-268642D01*
X279508Y-268510D01*
X279506Y-268377D01*
X279506Y-263862D01*
X279508Y-263685D01*
X279515Y-263507D01*
X279526Y-263330D01*
X279541Y-263154D01*
X279560Y-262978D01*
X279584Y-262802D01*
X279612Y-262627D01*
X279645Y-262452D01*
X279682Y-262279D01*
X279723Y-262106D01*
X279768Y-261935D01*
X279817Y-261765D01*
X279871Y-261596D01*
X279928Y-261428D01*
X279990Y-261262D01*
X280056Y-261097D01*
X280126Y-260934D01*
X280200Y-260773D01*
X280277Y-260614D01*
X280359Y-260456D01*
X280445Y-260301D01*
X280534Y-260148D01*
X280627Y-259997D01*
X280724Y-259848D01*
X280824Y-259702D01*
X280928Y-259558D01*
X281035Y-259417D01*
X281146Y-259279D01*
X281260Y-259143D01*
X281378Y-259010D01*
X281498Y-258880D01*
X281622Y-258753D01*
X281749Y-258629D01*
X281879Y-258509D01*
X282012Y-258391D01*
X282147Y-258277D01*
X282286Y-258166D01*
X282427Y-258059D01*
X282571Y-257955D01*
X282717Y-257855D01*
X282866Y-257758D01*
X283017Y-257665D01*
X283170Y-257576D01*
X283325Y-257490D01*
X283483Y-257408D01*
X283642Y-257331D01*
X283803Y-257257D01*
X283966Y-257187D01*
X284131Y-257121D01*
X284297Y-257059D01*
X284465Y-257002D01*
X284634Y-256948D01*
X284804Y-256899D01*
X284975Y-256854D01*
X285148Y-256813D01*
X285321Y-256776D01*
X285496Y-256743D01*
X285671Y-256715D01*
X285847Y-256691D01*
X286023Y-256672D01*
X286199Y-256657D01*
X286376Y-256646D01*
X286554Y-256639D01*
X286731Y-256637D01*
X295137Y-260249D02*
X299653Y-256637D01*
X299653Y-272893D01*
X295137Y-272893D02*
X304169Y-272893D01*
D10*
X542800Y0D02*
X905292Y-3623D01*
X908592Y326577D02*
X546100Y330200D01*
X889086Y326122D02*
X885799Y-2778D01*
X882860Y22603D01*
X889245Y22539D01*
X885799Y-2778D01*
X884753Y22584D01*
X887352Y22558D02*
X885799Y-2778D01*
X883453Y22597D01*
X888652Y22545D02*
X885799Y-2778D01*
X885641Y300805D02*
X889086Y326122D01*
X892025Y300742D02*
X885641Y300805D01*
X892025Y300742D02*
X889086Y326122D01*
X887533Y300786D01*
X890133Y300760D02*
X889086Y326122D01*
X886233Y300799D01*
X891433Y300747D02*
X889086Y326122D01*
D11*
X880673Y135196D02*
X880626Y130680D01*
X880674Y135196D02*
X880673Y135328D01*
X880669Y135461D01*
X880660Y135593D01*
X880648Y135725D01*
X880632Y135857D01*
X880612Y135988D01*
X880588Y136118D01*
X880561Y136248D01*
X880529Y136377D01*
X880494Y136505D01*
X880455Y136631D01*
X880413Y136757D01*
X880366Y136881D01*
X880316Y137004D01*
X880263Y137125D01*
X880206Y137245D01*
X880145Y137363D01*
X880082Y137479D01*
X880014Y137593D01*
X879944Y137706D01*
X879870Y137816D01*
X879792Y137923D01*
X879712Y138029D01*
X879629Y138132D01*
X879543Y138233D01*
X879453Y138331D01*
X879361Y138426D01*
X879266Y138519D01*
X879169Y138609D01*
X879069Y138696D01*
X878966Y138780D01*
X878861Y138861D01*
X878754Y138938D01*
X878644Y139013D01*
X878532Y139084D01*
X878419Y139152D01*
X878303Y139217D01*
X878185Y139278D01*
X878066Y139336D01*
X877945Y139390D01*
X877823Y139441D01*
X877699Y139488D01*
X877573Y139532D01*
X877447Y139571D01*
X877319Y139607D01*
X877191Y139639D01*
X877061Y139668D01*
X876931Y139692D01*
X876800Y139713D01*
X876668Y139730D01*
X876536Y139743D01*
X876404Y139752D01*
X876272Y139758D01*
X876139Y139759D01*
X876006Y139756D01*
X875874Y139750D01*
X875742Y139740D01*
X875610Y139726D01*
X875479Y139708D01*
X875348Y139686D01*
X875218Y139660D01*
X875089Y139631D01*
X874960Y139597D01*
X874833Y139560D01*
X874707Y139519D01*
X874582Y139475D01*
X874458Y139427D01*
X874336Y139375D01*
X874216Y139320D01*
X874097Y139261D01*
X873980Y139199D01*
X873864Y139133D01*
X873751Y139064D01*
X873640Y138992D01*
X873531Y138916D01*
X873424Y138838D01*
X873320Y138756D01*
X873218Y138671D01*
X873119Y138583D01*
X873022Y138493D01*
X872928Y138399D01*
X872837Y138303D01*
X872748Y138204D01*
X872663Y138103D01*
X872580Y137999D01*
X872501Y137893D01*
X872425Y137784D01*
X872352Y137674D01*
X872282Y137561D01*
X872216Y137446D01*
X872153Y137329D01*
X872093Y137211D01*
X872037Y137091D01*
X871985Y136969D01*
X871936Y136846D01*
X871891Y136721D01*
X871849Y136595D01*
X871811Y136468D01*
X871777Y136340D01*
X871747Y136211D01*
X871720Y136081D01*
X871698Y135950D01*
X871679Y135819D01*
X871664Y135687D01*
X871653Y135555D01*
X871646Y135423D01*
X871642Y135290D01*
X864428Y136269D02*
X864371Y130851D01*
X864428Y136269D02*
X864431Y136388D01*
X864439Y136507D01*
X864450Y136626D01*
X864465Y136745D01*
X864484Y136863D01*
X864507Y136980D01*
X864533Y137096D01*
X864564Y137212D01*
X864598Y137326D01*
X864636Y137440D01*
X864678Y137551D01*
X864723Y137662D01*
X864773Y137771D01*
X864825Y137878D01*
X864882Y137983D01*
X864941Y138087D01*
X865004Y138188D01*
X865071Y138288D01*
X865140Y138385D01*
X865213Y138479D01*
X865289Y138572D01*
X865368Y138661D01*
X865450Y138748D01*
X865534Y138832D01*
X865622Y138914D01*
X865712Y138992D01*
X865804Y139068D01*
X865899Y139140D01*
X865997Y139209D01*
X866096Y139275D01*
X866198Y139338D01*
X866302Y139397D01*
X866407Y139453D01*
X866515Y139505D01*
X866624Y139554D01*
X866734Y139599D01*
X866846Y139640D01*
X866960Y139678D01*
X867074Y139712D01*
X867190Y139742D01*
X867307Y139768D01*
X867424Y139790D01*
X867542Y139808D01*
X867660Y139823D01*
X867779Y139834D01*
X867899Y139840D01*
X868018Y139843D01*
X868138Y139842D01*
X868257Y139836D01*
X868376Y139827D01*
X868495Y139814D01*
X868613Y139797D01*
X868731Y139776D01*
X868847Y139752D01*
X868963Y139723D01*
X869078Y139691D01*
X869192Y139654D01*
X869305Y139614D01*
X869416Y139571D01*
X869525Y139523D01*
X869634Y139472D01*
X869740Y139418D01*
X869844Y139360D01*
X869947Y139299D01*
X870047Y139234D01*
X870145Y139166D01*
X870241Y139095D01*
X870335Y139020D01*
X870426Y138943D01*
X870514Y138863D01*
X870600Y138779D01*
X870683Y138693D01*
X870763Y138605D01*
X870840Y138513D01*
X870913Y138420D01*
X870984Y138323D01*
X871052Y138225D01*
X871116Y138124D01*
X871177Y138021D01*
X871234Y137917D01*
X871288Y137810D01*
X871339Y137702D01*
X871386Y137592D01*
X871429Y137481D01*
X871468Y137368D01*
X871504Y137254D01*
X871536Y137139D01*
X871564Y137023D01*
X871588Y136906D01*
X871609Y136788D01*
X871625Y136670D01*
X871638Y136551D01*
X871646Y136432D01*
X871651Y136313D01*
X871652Y136193D01*
X871614Y132581D01*
X880790Y146311D02*
X880837Y150826D01*
X880838Y150826D02*
X880837Y150958D01*
X880833Y151091D01*
X880824Y151223D01*
X880812Y151355D01*
X880796Y151487D01*
X880776Y151618D01*
X880752Y151748D01*
X880725Y151878D01*
X880693Y152007D01*
X880658Y152135D01*
X880619Y152261D01*
X880577Y152387D01*
X880530Y152511D01*
X880480Y152634D01*
X880427Y152755D01*
X880370Y152875D01*
X880309Y152993D01*
X880246Y153109D01*
X880178Y153223D01*
X880108Y153336D01*
X880034Y153446D01*
X879956Y153553D01*
X879876Y153659D01*
X879793Y153762D01*
X879707Y153863D01*
X879617Y153961D01*
X879525Y154056D01*
X879430Y154149D01*
X879333Y154239D01*
X879233Y154326D01*
X879130Y154410D01*
X879025Y154491D01*
X878918Y154568D01*
X878808Y154643D01*
X878696Y154714D01*
X878583Y154782D01*
X878467Y154847D01*
X878349Y154908D01*
X878230Y154966D01*
X878109Y155020D01*
X877987Y155071D01*
X877863Y155118D01*
X877737Y155162D01*
X877611Y155201D01*
X877483Y155237D01*
X877355Y155269D01*
X877225Y155298D01*
X877095Y155322D01*
X876964Y155343D01*
X876832Y155360D01*
X876700Y155373D01*
X876568Y155382D01*
X876436Y155388D01*
X876303Y155389D01*
X876170Y155386D01*
X876038Y155380D01*
X875906Y155370D01*
X875774Y155356D01*
X875643Y155338D01*
X875512Y155316D01*
X875382Y155290D01*
X875253Y155261D01*
X875124Y155227D01*
X874997Y155190D01*
X874871Y155149D01*
X874746Y155105D01*
X874622Y155057D01*
X874500Y155005D01*
X874380Y154950D01*
X874261Y154891D01*
X874144Y154829D01*
X874028Y154763D01*
X873915Y154694D01*
X873804Y154622D01*
X873695Y154546D01*
X873588Y154468D01*
X873484Y154386D01*
X873382Y154301D01*
X873283Y154213D01*
X873186Y154123D01*
X873092Y154029D01*
X873001Y153933D01*
X872912Y153834D01*
X872827Y153733D01*
X872744Y153629D01*
X872665Y153523D01*
X872589Y153414D01*
X872516Y153304D01*
X872446Y153191D01*
X872380Y153076D01*
X872317Y152959D01*
X872257Y152841D01*
X872201Y152721D01*
X872149Y152599D01*
X872100Y152476D01*
X872055Y152351D01*
X872013Y152225D01*
X871975Y152098D01*
X871941Y151970D01*
X871911Y151841D01*
X871884Y151711D01*
X871862Y151580D01*
X871843Y151449D01*
X871828Y151317D01*
X871817Y151185D01*
X871810Y151053D01*
X871806Y150920D01*
X864591Y151899D02*
X864534Y146481D01*
X864591Y151899D02*
X864594Y152018D01*
X864602Y152137D01*
X864613Y152256D01*
X864628Y152375D01*
X864647Y152493D01*
X864670Y152610D01*
X864696Y152726D01*
X864727Y152842D01*
X864761Y152956D01*
X864799Y153070D01*
X864841Y153181D01*
X864886Y153292D01*
X864936Y153401D01*
X864988Y153508D01*
X865045Y153613D01*
X865104Y153717D01*
X865167Y153818D01*
X865234Y153918D01*
X865303Y154015D01*
X865376Y154109D01*
X865452Y154202D01*
X865531Y154291D01*
X865613Y154378D01*
X865697Y154462D01*
X865785Y154544D01*
X865875Y154622D01*
X865967Y154698D01*
X866062Y154770D01*
X866160Y154839D01*
X866259Y154905D01*
X866361Y154968D01*
X866465Y155027D01*
X866570Y155083D01*
X866678Y155135D01*
X866787Y155184D01*
X866897Y155229D01*
X867009Y155270D01*
X867123Y155308D01*
X867237Y155342D01*
X867353Y155372D01*
X867470Y155398D01*
X867587Y155420D01*
X867705Y155438D01*
X867823Y155453D01*
X867942Y155464D01*
X868062Y155470D01*
X868181Y155473D01*
X868301Y155472D01*
X868420Y155466D01*
X868539Y155457D01*
X868658Y155444D01*
X868776Y155427D01*
X868894Y155406D01*
X869010Y155382D01*
X869126Y155353D01*
X869241Y155321D01*
X869355Y155284D01*
X869468Y155244D01*
X869579Y155201D01*
X869688Y155153D01*
X869797Y155102D01*
X869903Y155048D01*
X870007Y154990D01*
X870110Y154929D01*
X870210Y154864D01*
X870308Y154796D01*
X870404Y154725D01*
X870498Y154650D01*
X870589Y154573D01*
X870677Y154493D01*
X870763Y154409D01*
X870846Y154323D01*
X870926Y154235D01*
X871003Y154143D01*
X871076Y154050D01*
X871147Y153953D01*
X871215Y153855D01*
X871279Y153754D01*
X871340Y153651D01*
X871397Y153547D01*
X871451Y153440D01*
X871502Y153332D01*
X871549Y153222D01*
X871592Y153111D01*
X871631Y152998D01*
X871667Y152884D01*
X871699Y152769D01*
X871727Y152653D01*
X871751Y152536D01*
X871772Y152418D01*
X871788Y152300D01*
X871801Y152181D01*
X871809Y152062D01*
X871814Y151943D01*
X871815Y151823D01*
X871816Y151824D02*
X871778Y148211D01*
X880044Y161325D02*
X880947Y161316D01*
X880044Y161325D02*
X880053Y162228D01*
X880956Y162219D01*
X880947Y161316D01*
X872891Y168278D02*
X872571Y168285D01*
X872252Y168300D01*
X871933Y168322D01*
X871614Y168352D01*
X871297Y168390D01*
X870980Y168435D01*
X870665Y168488D01*
X870351Y168548D01*
X870038Y168616D01*
X869727Y168691D01*
X869418Y168773D01*
X869111Y168863D01*
X868807Y168961D01*
X868505Y169065D01*
X868205Y169177D01*
X867908Y169295D01*
X867614Y169421D01*
X867323Y169554D01*
X867035Y169694D01*
X867035Y169695D02*
X866928Y169735D01*
X866821Y169779D01*
X866716Y169827D01*
X866613Y169878D01*
X866512Y169933D01*
X866413Y169991D01*
X866316Y170053D01*
X866220Y170118D01*
X866128Y170186D01*
X866037Y170257D01*
X865949Y170332D01*
X865864Y170409D01*
X865782Y170489D01*
X865702Y170572D01*
X865625Y170658D01*
X865551Y170747D01*
X865481Y170837D01*
X865413Y170931D01*
X865349Y171026D01*
X865288Y171124D01*
X865230Y171223D01*
X865176Y171325D01*
X865126Y171429D01*
X865079Y171534D01*
X865035Y171640D01*
X864996Y171748D01*
X864960Y171858D01*
X864928Y171968D01*
X864900Y172080D01*
X864875Y172192D01*
X864855Y172306D01*
X864838Y172420D01*
X864825Y172534D01*
X864817Y172649D01*
X864812Y172764D01*
X864811Y172879D01*
X864814Y172994D01*
X864822Y173109D01*
X864833Y173223D01*
X864848Y173338D01*
X864867Y173451D01*
X864890Y173564D01*
X864916Y173676D01*
X864947Y173787D01*
X864981Y173897D01*
X865019Y174005D01*
X865061Y174113D01*
X865107Y174218D01*
X865156Y174322D01*
X865209Y174425D01*
X865265Y174525D01*
X865325Y174624D01*
X865388Y174720D01*
X865454Y174814D01*
X865523Y174906D01*
X865596Y174995D01*
X865672Y175082D01*
X865750Y175166D01*
X865832Y175248D01*
X865916Y175326D01*
X866003Y175402D01*
X866092Y175474D01*
X866184Y175544D01*
X866278Y175610D01*
X866374Y175673D01*
X866473Y175732D01*
X866573Y175789D01*
X866676Y175841D01*
X866780Y175890D01*
X866886Y175936D01*
X866993Y175978D01*
X867102Y176016D01*
X867392Y176150D01*
X867686Y176276D01*
X867983Y176396D01*
X868282Y176509D01*
X868584Y176614D01*
X868888Y176712D01*
X869195Y176803D01*
X869504Y176886D01*
X869814Y176962D01*
X870127Y177031D01*
X870441Y177092D01*
X870756Y177146D01*
X871072Y177192D01*
X871390Y177231D01*
X871708Y177262D01*
X872027Y177285D01*
X872346Y177301D01*
X872666Y177309D01*
X872986Y177309D01*
X872892Y168279D02*
X873211Y168279D01*
X873531Y168287D01*
X873850Y168303D01*
X874169Y168326D01*
X874488Y168357D01*
X874805Y168396D01*
X875122Y168442D01*
X875437Y168496D01*
X875751Y168557D01*
X876063Y168625D01*
X876374Y168702D01*
X876682Y168785D01*
X876989Y168876D01*
X877293Y168974D01*
X877595Y169079D01*
X877895Y169192D01*
X878191Y169311D01*
X878485Y169438D01*
X878776Y169572D01*
X878775Y169571D02*
X878884Y169609D01*
X878991Y169651D01*
X879097Y169697D01*
X879201Y169746D01*
X879304Y169798D01*
X879404Y169855D01*
X879503Y169914D01*
X879599Y169977D01*
X879693Y170043D01*
X879785Y170113D01*
X879874Y170185D01*
X879961Y170261D01*
X880045Y170339D01*
X880127Y170421D01*
X880205Y170505D01*
X880281Y170592D01*
X880354Y170681D01*
X880423Y170773D01*
X880489Y170867D01*
X880552Y170963D01*
X880612Y171062D01*
X880668Y171162D01*
X880721Y171264D01*
X880770Y171369D01*
X880816Y171474D01*
X880858Y171582D01*
X880896Y171690D01*
X880930Y171800D01*
X880961Y171911D01*
X880987Y172023D01*
X881010Y172136D01*
X881029Y172249D01*
X881044Y172364D01*
X881055Y172478D01*
X881063Y172593D01*
X881066Y172708D01*
X878841Y175892D02*
X878553Y176032D01*
X878262Y176165D01*
X877968Y176291D01*
X877672Y176409D01*
X877372Y176521D01*
X877070Y176625D01*
X876765Y176723D01*
X876458Y176813D01*
X876149Y176895D01*
X875838Y176970D01*
X875526Y177038D01*
X875212Y177098D01*
X874896Y177151D01*
X874580Y177196D01*
X874262Y177234D01*
X873944Y177264D01*
X873625Y177286D01*
X873305Y177301D01*
X872985Y177308D01*
X878842Y175893D02*
X878950Y175852D01*
X879056Y175808D01*
X879161Y175761D01*
X879264Y175709D01*
X879365Y175655D01*
X879465Y175596D01*
X879562Y175535D01*
X879657Y175470D01*
X879750Y175402D01*
X879840Y175330D01*
X879928Y175256D01*
X880013Y175179D01*
X880096Y175098D01*
X880176Y175015D01*
X880253Y174929D01*
X880326Y174841D01*
X880397Y174750D01*
X880465Y174657D01*
X880529Y174561D01*
X880590Y174464D01*
X880648Y174364D01*
X880702Y174262D01*
X880752Y174159D01*
X880799Y174054D01*
X880843Y173947D01*
X880882Y173839D01*
X880918Y173729D01*
X880950Y173619D01*
X880978Y173507D01*
X881003Y173395D01*
X881023Y173281D01*
X881040Y173167D01*
X881053Y173053D01*
X881061Y172938D01*
X881066Y172823D01*
X881067Y172708D01*
X877416Y169134D02*
X868461Y176453D01*
X864979Y188961D02*
X864982Y189086D01*
X864990Y189211D01*
X865000Y189335D01*
X865015Y189460D01*
X865034Y189583D01*
X865056Y189707D01*
X865082Y189829D01*
X865112Y189951D01*
X865146Y190071D01*
X865183Y190191D01*
X865224Y190309D01*
X865269Y190426D01*
X865317Y190541D01*
X865369Y190655D01*
X865424Y190768D01*
X865483Y190878D01*
X865545Y190987D01*
X865610Y191094D01*
X865679Y191198D01*
X865751Y191301D01*
X865826Y191401D01*
X865904Y191499D01*
X865985Y191594D01*
X866069Y191687D01*
X866155Y191778D01*
X866245Y191865D01*
X866337Y191950D01*
X866431Y192032D01*
X866528Y192111D01*
X866628Y192187D01*
X866730Y192259D01*
X866834Y192329D01*
X866940Y192396D01*
X867048Y192459D01*
X867158Y192518D01*
X867270Y192575D01*
X867383Y192628D01*
X867498Y192677D01*
X867615Y192723D01*
X867733Y192765D01*
X867852Y192803D01*
X867972Y192838D01*
X868093Y192869D01*
X868215Y192897D01*
X868338Y192920D01*
X868462Y192940D01*
X868586Y192956D01*
X868710Y192968D01*
X868835Y192977D01*
X868960Y192981D01*
X869086Y192982D01*
X864979Y188961D02*
X864980Y188818D01*
X864984Y188675D01*
X864992Y188533D01*
X865005Y188391D01*
X865021Y188249D01*
X865040Y188107D01*
X865064Y187967D01*
X865092Y187827D01*
X865123Y187687D01*
X865158Y187549D01*
X865197Y187412D01*
X865240Y187276D01*
X865287Y187141D01*
X865337Y187007D01*
X865390Y186875D01*
X865448Y186744D01*
X865509Y186615D01*
X865573Y186487D01*
X865641Y186362D01*
X865712Y186238D01*
X865787Y186117D01*
X865865Y185997D01*
X865946Y185880D01*
X866030Y185764D01*
X866117Y185652D01*
X866208Y185541D01*
X866301Y185433D01*
X866398Y185328D01*
X866497Y185225D01*
X866599Y185126D01*
X866704Y185029D01*
X866811Y184934D01*
X866921Y184843D01*
X867033Y184755D01*
X867148Y184670D01*
X867265Y184588D01*
X867384Y184510D01*
X867505Y184434D01*
X867628Y184362D01*
X867754Y184294D01*
X867881Y184229D01*
X868009Y184167D01*
X868140Y184109D01*
X868272Y184054D01*
X868405Y184003D01*
X868540Y183956D01*
X872232Y191594D02*
X872141Y191689D01*
X872048Y191780D01*
X871952Y191869D01*
X871853Y191955D01*
X871752Y192038D01*
X871648Y192117D01*
X871542Y192194D01*
X871433Y192267D01*
X871323Y192338D01*
X871210Y192404D01*
X871096Y192468D01*
X870979Y192528D01*
X870861Y192584D01*
X870741Y192637D01*
X870620Y192686D01*
X870497Y192732D01*
X870373Y192773D01*
X870248Y192812D01*
X870122Y192846D01*
X869994Y192876D01*
X869866Y192903D01*
X869737Y192926D01*
X869608Y192945D01*
X869478Y192960D01*
X869347Y192971D01*
X869217Y192978D01*
X869086Y192982D01*
X872232Y191594D02*
X881182Y183823D01*
X881277Y192854D01*
D10*
X778162Y-3058D02*
X542800Y0D01*
X546100Y254000D02*
X781462Y250942D01*
X761955Y250546D02*
X758672Y-2155D01*
X755809Y23235D01*
X762193Y23152D01*
X758672Y-2155D01*
X757701Y23210D01*
X760301Y23176D02*
X758672Y-2155D01*
X756402Y23227D01*
X761601Y23160D02*
X758672Y-2155D01*
X758434Y225239D02*
X761955Y250546D01*
X758434Y225239D02*
X764818Y225156D01*
X761955Y250546D01*
X760326Y225215D01*
X762926Y225181D02*
X761955Y250546D01*
X759026Y225231D01*
X764226Y225164D02*
X761955Y250546D01*
D11*
X741323Y102403D02*
X741197Y102402D01*
X741072Y102398D01*
X740947Y102390D01*
X740823Y102378D01*
X740699Y102362D01*
X740575Y102343D01*
X740452Y102319D01*
X740330Y102292D01*
X740209Y102261D01*
X740088Y102227D01*
X739969Y102188D01*
X739851Y102146D01*
X739735Y102101D01*
X739620Y102051D01*
X739506Y101999D01*
X739394Y101943D01*
X739284Y101883D01*
X739176Y101820D01*
X739070Y101754D01*
X738966Y101684D01*
X738864Y101612D01*
X738764Y101536D01*
X738667Y101457D01*
X738572Y101376D01*
X738480Y101291D01*
X738390Y101204D01*
X738303Y101113D01*
X738219Y101021D01*
X738138Y100925D01*
X738060Y100828D01*
X737985Y100727D01*
X737913Y100625D01*
X737844Y100521D01*
X737779Y100414D01*
X737716Y100305D01*
X737657Y100195D01*
X737602Y100083D01*
X737550Y99969D01*
X737502Y99853D01*
X737457Y99736D01*
X737416Y99618D01*
X737378Y99499D01*
X737344Y99378D01*
X737314Y99257D01*
X737288Y99135D01*
X737265Y99011D01*
X737246Y98888D01*
X737231Y98763D01*
X737220Y98639D01*
X737213Y98514D01*
X737209Y98389D01*
X737208Y98389D02*
X737209Y98246D01*
X737213Y98103D01*
X737221Y97961D01*
X737233Y97819D01*
X737248Y97677D01*
X737268Y97535D01*
X737292Y97395D01*
X737319Y97255D01*
X737350Y97115D01*
X737385Y96977D01*
X737424Y96840D01*
X737466Y96703D01*
X737512Y96568D01*
X737562Y96434D01*
X737616Y96302D01*
X737673Y96171D01*
X737734Y96042D01*
X737798Y95915D01*
X737865Y95789D01*
X737936Y95665D01*
X738011Y95543D01*
X738088Y95424D01*
X738169Y95306D01*
X738254Y95191D01*
X738341Y95078D01*
X738431Y94967D01*
X738524Y94859D01*
X738621Y94754D01*
X738720Y94651D01*
X738821Y94551D01*
X738926Y94454D01*
X739033Y94359D01*
X739143Y94268D01*
X739255Y94180D01*
X739369Y94094D01*
X739486Y94012D01*
X739605Y93934D01*
X739726Y93858D01*
X739849Y93786D01*
X739975Y93717D01*
X740101Y93652D01*
X740230Y93590D01*
X740360Y93531D01*
X740492Y93477D01*
X740625Y93425D01*
X740760Y93378D01*
X744466Y101010D02*
X744376Y101104D01*
X744282Y101196D01*
X744186Y101285D01*
X744088Y101371D01*
X743987Y101454D01*
X743883Y101534D01*
X743777Y101611D01*
X743669Y101684D01*
X743558Y101755D01*
X743446Y101822D01*
X743331Y101885D01*
X743215Y101945D01*
X743097Y102002D01*
X742977Y102055D01*
X742856Y102104D01*
X742733Y102150D01*
X742609Y102192D01*
X742484Y102230D01*
X742358Y102265D01*
X742231Y102296D01*
X742103Y102323D01*
X741974Y102346D01*
X741844Y102365D01*
X741714Y102380D01*
X741584Y102392D01*
X741453Y102399D01*
X741322Y102403D01*
X744466Y101009D02*
X753403Y93223D01*
X753513Y102254D01*
X753594Y108853D02*
X753660Y114272D01*
X753659Y114390D01*
X753655Y114508D01*
X753647Y114626D01*
X753635Y114744D01*
X753619Y114861D01*
X753599Y114977D01*
X753575Y115093D01*
X753548Y115208D01*
X753517Y115322D01*
X753482Y115435D01*
X753444Y115547D01*
X753402Y115657D01*
X753356Y115766D01*
X753307Y115874D01*
X753254Y115980D01*
X753198Y116084D01*
X753138Y116186D01*
X753076Y116286D01*
X753009Y116384D01*
X752940Y116480D01*
X752868Y116573D01*
X752793Y116664D01*
X752714Y116753D01*
X752633Y116839D01*
X752549Y116922D01*
X752463Y117002D01*
X752373Y117080D01*
X752282Y117155D01*
X752188Y117226D01*
X752091Y117295D01*
X751993Y117360D01*
X751892Y117422D01*
X751789Y117480D01*
X751685Y117536D01*
X751579Y117588D01*
X751471Y117636D01*
X751362Y117681D01*
X751251Y117722D01*
X751139Y117759D01*
X751025Y117793D01*
X750911Y117823D01*
X750796Y117850D01*
X750680Y117872D01*
X750563Y117891D01*
X750446Y117906D01*
X750328Y117917D01*
X750210Y117924D01*
X750092Y117928D01*
X748286Y117950D01*
X748286Y117951D02*
X748168Y117950D01*
X748050Y117946D01*
X747932Y117938D01*
X747814Y117926D01*
X747697Y117910D01*
X747580Y117890D01*
X747465Y117866D01*
X747350Y117839D01*
X747236Y117808D01*
X747123Y117773D01*
X747011Y117735D01*
X746900Y117693D01*
X746791Y117647D01*
X746684Y117598D01*
X746578Y117545D01*
X746474Y117489D01*
X746372Y117429D01*
X746272Y117366D01*
X746174Y117300D01*
X746078Y117231D01*
X745984Y117159D01*
X745893Y117083D01*
X745805Y117005D01*
X745719Y116924D01*
X745635Y116840D01*
X745555Y116753D01*
X745477Y116664D01*
X745403Y116572D01*
X745331Y116478D01*
X745263Y116382D01*
X745197Y116283D01*
X745135Y116183D01*
X745077Y116080D01*
X745021Y115975D01*
X744970Y115869D01*
X744921Y115761D01*
X744876Y115652D01*
X744835Y115541D01*
X744798Y115429D01*
X744764Y115316D01*
X744734Y115201D01*
X744707Y115086D01*
X744685Y114970D01*
X744666Y114853D01*
X744651Y114736D01*
X744640Y114618D01*
X744633Y114500D01*
X744629Y114382D01*
X744630Y114382D02*
X744563Y108964D01*
X737339Y109052D01*
X737449Y118082D01*
X752874Y123869D02*
X753777Y123858D01*
X752874Y123869D02*
X752885Y124772D01*
X753788Y124761D01*
X753777Y123858D01*
X750249Y130779D02*
X737651Y134546D01*
X750249Y130779D02*
X750359Y139810D01*
X746714Y137145D02*
X753938Y137057D01*
X745924Y146465D02*
X745605Y146473D01*
X745285Y146488D01*
X744966Y146511D01*
X744648Y146542D01*
X744330Y146580D01*
X744014Y146626D01*
X743699Y146679D01*
X743385Y146740D01*
X743072Y146808D01*
X742761Y146884D01*
X742453Y146967D01*
X742146Y147057D01*
X741841Y147155D01*
X741539Y147260D01*
X741240Y147372D01*
X740943Y147491D01*
X740649Y147618D01*
X740359Y147751D01*
X740071Y147891D01*
X740072Y147890D02*
X739964Y147931D01*
X739857Y147975D01*
X739753Y148023D01*
X739650Y148074D01*
X739549Y148129D01*
X739449Y148188D01*
X739352Y148249D01*
X739257Y148314D01*
X739164Y148383D01*
X739074Y148454D01*
X738986Y148529D01*
X738901Y148606D01*
X738819Y148687D01*
X738739Y148770D01*
X738663Y148856D01*
X738589Y148945D01*
X738518Y149036D01*
X738451Y149129D01*
X738387Y149225D01*
X738326Y149322D01*
X738269Y149422D01*
X738215Y149524D01*
X738164Y149627D01*
X738117Y149733D01*
X738074Y149839D01*
X738035Y149948D01*
X737999Y150057D01*
X737967Y150168D01*
X737939Y150279D01*
X737915Y150392D01*
X737895Y150505D01*
X737878Y150619D01*
X737866Y150734D01*
X737857Y150849D01*
X737853Y150964D01*
X737852Y151079D01*
X737856Y151194D01*
X737863Y151309D01*
X737874Y151423D01*
X737890Y151538D01*
X737909Y151651D01*
X737932Y151764D01*
X737959Y151876D01*
X737990Y151987D01*
X738024Y152097D01*
X738062Y152205D01*
X738105Y152312D01*
X738150Y152418D01*
X738200Y152522D01*
X738253Y152624D01*
X738309Y152725D01*
X738369Y152823D01*
X738432Y152920D01*
X738498Y153014D01*
X738568Y153105D01*
X738641Y153195D01*
X738717Y153281D01*
X738795Y153365D01*
X738877Y153446D01*
X738961Y153525D01*
X739048Y153600D01*
X739138Y153673D01*
X739230Y153742D01*
X739324Y153808D01*
X739421Y153871D01*
X739519Y153930D01*
X739620Y153986D01*
X739723Y154039D01*
X739827Y154088D01*
X739933Y154133D01*
X740040Y154174D01*
X740149Y154212D01*
X740440Y154345D01*
X740734Y154472D01*
X741030Y154591D01*
X741330Y154703D01*
X741632Y154808D01*
X741937Y154905D01*
X742243Y154995D01*
X742552Y155078D01*
X742863Y155154D01*
X743175Y155222D01*
X743489Y155283D01*
X743805Y155336D01*
X744121Y155381D01*
X744439Y155419D01*
X744757Y155450D01*
X745076Y155472D01*
X745396Y155488D01*
X745715Y155495D01*
X746035Y155495D01*
X745924Y146465D02*
X746244Y146465D01*
X746564Y146472D01*
X746883Y146488D01*
X747202Y146510D01*
X747521Y146541D01*
X747838Y146579D01*
X748155Y146624D01*
X748470Y146677D01*
X748784Y146738D01*
X749097Y146806D01*
X749407Y146882D01*
X749716Y146965D01*
X750023Y147055D01*
X750328Y147153D01*
X750630Y147257D01*
X750929Y147369D01*
X751226Y147488D01*
X751520Y147615D01*
X751811Y147748D01*
X751811Y147747D02*
X751920Y147785D01*
X752027Y147826D01*
X752133Y147871D01*
X752237Y147920D01*
X752340Y147973D01*
X752441Y148029D01*
X752539Y148088D01*
X752636Y148151D01*
X752730Y148217D01*
X752822Y148286D01*
X752912Y148359D01*
X752999Y148434D01*
X753083Y148513D01*
X753165Y148594D01*
X753243Y148678D01*
X753319Y148764D01*
X753392Y148854D01*
X753462Y148945D01*
X753528Y149039D01*
X753591Y149136D01*
X753651Y149234D01*
X753707Y149335D01*
X753760Y149437D01*
X753810Y149541D01*
X753855Y149647D01*
X753898Y149754D01*
X753936Y149862D01*
X753970Y149972D01*
X754001Y150083D01*
X754028Y150195D01*
X754051Y150308D01*
X754070Y150421D01*
X754086Y150536D01*
X754097Y150650D01*
X754104Y150765D01*
X754108Y150880D01*
X751888Y154069D02*
X751600Y154209D01*
X751310Y154342D01*
X751016Y154469D01*
X750719Y154588D01*
X750420Y154700D01*
X750118Y154805D01*
X749813Y154903D01*
X749506Y154993D01*
X749198Y155076D01*
X748887Y155152D01*
X748574Y155220D01*
X748260Y155281D01*
X747945Y155334D01*
X747629Y155380D01*
X747311Y155418D01*
X746993Y155449D01*
X746674Y155472D01*
X746354Y155487D01*
X746035Y155495D01*
X751888Y154069D02*
X751996Y154028D01*
X752103Y153984D01*
X752207Y153936D01*
X752310Y153885D01*
X752412Y153830D01*
X752511Y153771D01*
X752608Y153710D01*
X752703Y153644D01*
X752796Y153576D01*
X752886Y153505D01*
X752974Y153430D01*
X753059Y153353D01*
X753141Y153272D01*
X753221Y153189D01*
X753297Y153103D01*
X753371Y153014D01*
X753442Y152923D01*
X753509Y152830D01*
X753573Y152734D01*
X753634Y152637D01*
X753691Y152537D01*
X753745Y152435D01*
X753796Y152332D01*
X753843Y152226D01*
X753886Y152120D01*
X753925Y152011D01*
X753961Y151902D01*
X753993Y151791D01*
X754021Y151680D01*
X754045Y151567D01*
X754065Y151454D01*
X754082Y151340D01*
X754094Y151225D01*
X754103Y151110D01*
X754107Y150995D01*
X754108Y150880D01*
X750451Y147313D02*
X741509Y154647D01*
D10*
X63500Y330200D02*
X63500Y-159200D01*
X482600Y-159200D02*
X482600Y330200D01*
X481950Y-139700D02*
X64150Y-139700D01*
X89500Y-136508D01*
X89500Y-142892D01*
X64150Y-139700D01*
X89500Y-138400D01*
X89500Y-141000D02*
X64150Y-139700D01*
X89500Y-137100D01*
X89500Y-142300D02*
X64150Y-139700D01*
X456600Y-136508D02*
X481950Y-139700D01*
X456600Y-136508D02*
X456600Y-142892D01*
X481950Y-139700D01*
X456600Y-138400D01*
X456600Y-141000D02*
X481950Y-139700D01*
X456600Y-137100D01*
X456600Y-142300D02*
X481950Y-139700D01*
D11*
X245604Y-116937D02*
X241991Y-129581D01*
X251022Y-129581D01*
X248313Y-125968D02*
X248313Y-133193D01*
X257623Y-120549D02*
X262138Y-116937D01*
X262138Y-133193D01*
X257623Y-133193D02*
X266654Y-133193D01*
X272628Y-133193D02*
X272628Y-132290D01*
X273531Y-132290D01*
X273531Y-133193D01*
X272628Y-133193D01*
X283119Y-125968D02*
X288537Y-125968D01*
X283119Y-125968D02*
X283001Y-125966D01*
X282883Y-125960D01*
X282765Y-125951D01*
X282648Y-125937D01*
X282531Y-125920D01*
X282414Y-125899D01*
X282299Y-125874D01*
X282184Y-125845D01*
X282070Y-125812D01*
X281958Y-125776D01*
X281847Y-125736D01*
X281737Y-125693D01*
X281628Y-125646D01*
X281521Y-125596D01*
X281416Y-125541D01*
X281313Y-125484D01*
X281212Y-125423D01*
X281112Y-125359D01*
X281015Y-125292D01*
X280920Y-125222D01*
X280828Y-125148D01*
X280737Y-125072D01*
X280650Y-124992D01*
X280565Y-124910D01*
X280483Y-124825D01*
X280403Y-124738D01*
X280327Y-124647D01*
X280253Y-124555D01*
X280183Y-124460D01*
X280116Y-124363D01*
X280052Y-124263D01*
X279991Y-124162D01*
X279934Y-124059D01*
X279879Y-123954D01*
X279829Y-123847D01*
X279782Y-123738D01*
X279739Y-123628D01*
X279699Y-123517D01*
X279663Y-123405D01*
X279630Y-123291D01*
X279601Y-123176D01*
X279576Y-123061D01*
X279555Y-122944D01*
X279538Y-122827D01*
X279524Y-122710D01*
X279515Y-122592D01*
X279509Y-122474D01*
X279507Y-122356D01*
X279506Y-122356D02*
X279506Y-121453D01*
X279508Y-121320D01*
X279514Y-121188D01*
X279524Y-121056D01*
X279537Y-120924D01*
X279555Y-120792D01*
X279576Y-120662D01*
X279601Y-120531D01*
X279630Y-120402D01*
X279663Y-120274D01*
X279699Y-120146D01*
X279739Y-120020D01*
X279783Y-119895D01*
X279831Y-119771D01*
X279882Y-119649D01*
X279937Y-119528D01*
X279995Y-119409D01*
X280057Y-119291D01*
X280122Y-119176D01*
X280191Y-119062D01*
X280262Y-118951D01*
X280338Y-118842D01*
X280416Y-118735D01*
X280497Y-118630D01*
X280582Y-118528D01*
X280669Y-118428D01*
X280759Y-118331D01*
X280852Y-118236D01*
X280948Y-118145D01*
X281046Y-118056D01*
X281147Y-117970D01*
X281251Y-117887D01*
X281357Y-117807D01*
X281465Y-117731D01*
X281575Y-117657D01*
X281688Y-117587D01*
X281802Y-117520D01*
X281919Y-117457D01*
X282037Y-117397D01*
X282157Y-117340D01*
X282279Y-117287D01*
X282402Y-117238D01*
X282526Y-117192D01*
X282652Y-117150D01*
X282779Y-117112D01*
X282907Y-117077D01*
X283036Y-117046D01*
X283165Y-117019D01*
X283296Y-116996D01*
X283427Y-116976D01*
X283559Y-116961D01*
X283691Y-116949D01*
X283823Y-116941D01*
X283956Y-116937D01*
X284088Y-116937D01*
X284221Y-116941D01*
X284353Y-116949D01*
X284485Y-116961D01*
X284617Y-116976D01*
X284748Y-116996D01*
X284879Y-117019D01*
X285008Y-117046D01*
X285137Y-117077D01*
X285265Y-117112D01*
X285392Y-117150D01*
X285518Y-117192D01*
X285642Y-117238D01*
X285765Y-117287D01*
X285887Y-117340D01*
X286007Y-117397D01*
X286125Y-117457D01*
X286242Y-117520D01*
X286356Y-117587D01*
X286469Y-117657D01*
X286579Y-117731D01*
X286687Y-117807D01*
X286793Y-117887D01*
X286897Y-117970D01*
X286998Y-118056D01*
X287096Y-118145D01*
X287192Y-118236D01*
X287285Y-118331D01*
X287375Y-118428D01*
X287462Y-118528D01*
X287547Y-118630D01*
X287628Y-118735D01*
X287706Y-118842D01*
X287782Y-118951D01*
X287853Y-119062D01*
X287922Y-119176D01*
X287987Y-119291D01*
X288049Y-119409D01*
X288107Y-119528D01*
X288162Y-119649D01*
X288213Y-119771D01*
X288261Y-119895D01*
X288305Y-120020D01*
X288345Y-120146D01*
X288381Y-120274D01*
X288414Y-120402D01*
X288443Y-120531D01*
X288468Y-120662D01*
X288489Y-120792D01*
X288507Y-120924D01*
X288520Y-121056D01*
X288530Y-121188D01*
X288536Y-121320D01*
X288538Y-121453D01*
X288537Y-121453D02*
X288537Y-125968D01*
X288535Y-126143D01*
X288529Y-126317D01*
X288518Y-126491D01*
X288503Y-126665D01*
X288484Y-126839D01*
X288461Y-127012D01*
X288434Y-127184D01*
X288402Y-127356D01*
X288367Y-127527D01*
X288327Y-127697D01*
X288283Y-127866D01*
X288235Y-128034D01*
X288183Y-128201D01*
X288127Y-128366D01*
X288067Y-128530D01*
X288004Y-128693D01*
X287936Y-128853D01*
X287864Y-129013D01*
X287789Y-129170D01*
X287709Y-129326D01*
X287626Y-129479D01*
X287540Y-129631D01*
X287449Y-129780D01*
X287355Y-129927D01*
X287258Y-130072D01*
X287157Y-130215D01*
X287053Y-130355D01*
X286945Y-130492D01*
X286834Y-130627D01*
X286720Y-130759D01*
X286603Y-130888D01*
X286482Y-131015D01*
X286359Y-131138D01*
X286232Y-131259D01*
X286103Y-131376D01*
X285971Y-131490D01*
X285836Y-131601D01*
X285699Y-131709D01*
X285559Y-131813D01*
X285416Y-131914D01*
X285271Y-132011D01*
X285124Y-132105D01*
X284975Y-132196D01*
X284823Y-132282D01*
X284670Y-132365D01*
X284514Y-132445D01*
X284357Y-132520D01*
X284197Y-132592D01*
X284037Y-132660D01*
X283874Y-132723D01*
X283710Y-132783D01*
X283545Y-132839D01*
X283378Y-132891D01*
X283210Y-132939D01*
X283041Y-132983D01*
X282871Y-133023D01*
X282700Y-133058D01*
X282528Y-133090D01*
X282356Y-133117D01*
X282183Y-133140D01*
X282009Y-133159D01*
X281835Y-133174D01*
X281661Y-133185D01*
X281487Y-133191D01*
X281312Y-133193D01*
X295137Y-120549D02*
X299653Y-116937D01*
X299653Y-133193D01*
X295137Y-133193D02*
X304169Y-133193D01*
D12*
X482600Y322660D02*
X482600Y337740D01*
X508000Y337740D02*
X508000Y322660D01*
D13*
X495300Y437896D02*
X495300Y451104D01*
X469900Y451104D02*
X469900Y437896D01*
X50800Y450596D02*
X50800Y463804D01*
X25400Y463804D02*
X25400Y450596D01*
D14*
X444500Y901700D03*
X520700Y901700D03*
X101600Y952500D03*
X177800Y952500D03*
D15*
X88900Y419100D03*
X88900Y495300D03*
D14*
X444500Y863600D03*
X520700Y863600D03*
D15*
X431800Y406400D03*
X431800Y482600D03*
D12*
X241300Y1008460D02*
X241300Y1023540D01*
X266700Y1023540D02*
X266700Y1008460D01*
X292100Y1008460D02*
X292100Y1023540D01*
X63500Y1160860D02*
X63500Y1175940D01*
X88900Y1175940D02*
X88900Y1160860D01*
X114300Y1160860D02*
X114300Y1175940D01*
X139700Y1175940D02*
X139700Y1160860D01*
X38100Y261540D02*
X38100Y246460D01*
X63500Y246460D02*
X63500Y261540D01*
X38100Y322660D02*
X38100Y337740D01*
X63500Y337740D02*
X63500Y322660D01*
X221060Y711200D02*
X236140Y711200D01*
X236140Y685800D02*
X221060Y685800D01*
X221060Y660400D02*
X236140Y660400D01*
X236140Y635000D02*
X221060Y635000D01*
X221060Y609600D02*
X236140Y609600D01*
X236140Y584200D02*
X221060Y584200D01*
X221060Y558800D02*
X236140Y558800D01*
X236140Y533400D02*
X221060Y533400D01*
X221060Y508000D02*
X236140Y508000D01*
X236140Y482600D02*
X221060Y482600D01*
X221060Y457200D02*
X236140Y457200D01*
X297260Y711200D02*
X312340Y711200D01*
X312340Y685800D02*
X297260Y685800D01*
X297260Y660400D02*
X312340Y660400D01*
X312340Y635000D02*
X297260Y635000D01*
X297260Y609600D02*
X312340Y609600D01*
X312340Y584200D02*
X297260Y584200D01*
X297260Y558800D02*
X312340Y558800D01*
X312340Y533400D02*
X297260Y533400D01*
X297260Y508000D02*
X312340Y508000D01*
X312340Y482600D02*
X297260Y482600D01*
X297260Y457200D02*
X312340Y457200D01*
X368300Y1008460D02*
X368300Y1023540D01*
X393700Y1023540D02*
X393700Y1008460D01*
X419100Y1008460D02*
X419100Y1023540D01*
X482600Y261540D02*
X482600Y246460D01*
X508000Y246460D02*
X508000Y261540D01*
X114300Y1008460D02*
X114300Y1023540D01*
X139700Y1023540D02*
X139700Y1008460D01*
X165100Y1008460D02*
X165100Y1023540D01*
X63500Y667940D02*
X63500Y652860D01*
X88900Y652860D02*
X88900Y667940D01*
X114300Y667940D02*
X114300Y652860D01*
X406400Y652860D02*
X406400Y667940D01*
X431800Y667940D02*
X431800Y652860D01*
X457200Y652860D02*
X457200Y667940D01*
X393700Y1160860D02*
X393700Y1175940D01*
X419100Y1175940D02*
X419100Y1160860D01*
X444500Y1160860D02*
X444500Y1175940D01*
X469900Y1175940D02*
X469900Y1160860D01*
X228600Y1160860D02*
X228600Y1175940D01*
X254000Y1175940D02*
X254000Y1160860D01*
X279400Y1160860D02*
X279400Y1175940D01*
X304800Y1175940D02*
X304800Y1160860D01*
D11*
X304800Y638556D02*
X304800Y635000D01*
X304800Y638556D02*
X434340Y768096D01*
X434340Y877824D01*
X454152Y897636D01*
X454152Y1158240D01*
X445008Y1167384D01*
X444500Y1168400D01*
X283464Y1168908D02*
X280416Y1168908D01*
X283464Y1168908D02*
X301752Y1187196D01*
X425196Y1187196D01*
X443484Y1168908D01*
X280416Y1168908D02*
X279400Y1168400D01*
X443484Y1168908D02*
X444500Y1168400D01*
X67056Y1167384D02*
X64008Y1167384D01*
X67056Y1167384D02*
X196596Y1037844D01*
X371856Y1037844D01*
X393700Y1016000D01*
X64008Y1167384D02*
X63500Y1168400D01*
X114300Y1016508D02*
X117348Y1016508D01*
X135636Y1034796D01*
X222504Y1034796D01*
X241300Y1016000D01*
X114300Y1016000D02*
X114300Y1016508D01*
X249936Y1168908D02*
X252984Y1168908D01*
X249936Y1168908D02*
X231648Y1187196D01*
X108204Y1187196D01*
X89916Y1168908D01*
X252984Y1168908D02*
X254000Y1168400D01*
X89916Y1168908D02*
X88900Y1168400D01*
X242316Y1016508D02*
X245364Y1016508D01*
X263652Y1034796D01*
X348996Y1034796D01*
X367284Y1016508D01*
X242316Y1016508D02*
X241300Y1016000D01*
X367284Y1016508D02*
X368300Y1016000D01*
X431800Y406400D02*
X508000Y330200D01*
X509016Y329184D02*
X509016Y254508D01*
X508000Y254000D01*
X509016Y329184D02*
X508000Y330200D01*
X67056Y661416D02*
X64008Y661416D01*
X67056Y661416D02*
X115824Y710184D01*
X228600Y710184D01*
X64008Y661416D02*
X63500Y660400D01*
X228600Y710184D02*
X228600Y711200D01*
X443484Y697992D02*
X443484Y862584D01*
X443484Y697992D02*
X406908Y661416D01*
X443484Y862584D02*
X444500Y863600D01*
X406908Y661416D02*
X406400Y660400D01*
X233172Y1167384D02*
X228600Y1167384D01*
X233172Y1167384D02*
X249936Y1150620D01*
X376428Y1150620D01*
X393192Y1167384D01*
X228600Y1167384D02*
X228600Y1168400D01*
X393192Y1167384D02*
X393700Y1168400D01*
X266700Y1014984D02*
X262128Y1014984D01*
X199644Y952500D01*
X177800Y952500D01*
X266700Y1014984D02*
X266700Y1016000D01*
X519684Y900684D02*
X519684Y876300D01*
X446532Y803148D01*
X446532Y675132D01*
X431800Y660400D01*
X519684Y900684D02*
X520700Y901700D01*
X25908Y457200D02*
X25908Y342900D01*
X38100Y330708D01*
X38100Y330200D01*
X38100Y254000D01*
X88392Y519684D02*
X88392Y598932D01*
X88392Y659892D01*
X88392Y519684D02*
X25908Y457200D01*
X88392Y659892D02*
X88900Y660400D01*
X25908Y457200D02*
X25400Y457200D01*
X246888Y652272D02*
X304800Y710184D01*
X246888Y652272D02*
X246888Y605028D01*
X240792Y598932D01*
X88392Y598932D01*
X304800Y710184D02*
X304800Y711200D01*
X228600Y688848D02*
X228600Y685800D01*
X228600Y688848D02*
X280416Y740664D01*
X280416Y1004316D01*
X292100Y1016000D01*
X283464Y716280D02*
X228600Y661416D01*
X283464Y716280D02*
X283464Y879348D01*
X419100Y1014984D01*
X228600Y661416D02*
X228600Y660400D01*
X419100Y1014984D02*
X419100Y1016000D01*
X228600Y638556D02*
X228600Y635000D01*
X228600Y638556D02*
X286512Y696468D01*
X286512Y743712D01*
X444500Y901700D01*
X228600Y609600D02*
X164592Y609600D01*
X114300Y659892D01*
X114300Y660400D01*
X228600Y585216D02*
X257556Y585216D01*
X297180Y624840D01*
X422148Y624840D01*
X457200Y659892D01*
X228600Y585216D02*
X228600Y584200D01*
X457200Y659892D02*
X457200Y660400D01*
X164592Y1014984D02*
X102108Y952500D01*
X101600Y952500D01*
X164592Y1014984D02*
X165100Y1016000D01*
X489204Y445008D02*
X495300Y445008D01*
X489204Y445008D02*
X452628Y481584D01*
X432816Y481584D01*
X495300Y445008D02*
X495300Y444500D01*
X432816Y481584D02*
X431800Y482600D01*
X89916Y495300D02*
X51816Y457200D01*
X50800Y457200D01*
X88900Y495300D02*
X89916Y495300D01*
M02*
