G04 EAGLE Gerber RS-274X export*
G75*
%MOMM*%
%FSLAX34Y34*%
%LPD*%
%INSoldermask Top*%
%IPPOS*%
%AMOC8*
5,1,8,0,0,1.08239X$1,22.5*%
G01*
%ADD10C,1.203200*%
%ADD11C,1.711200*%
%ADD12C,1.524000*%
%ADD13P,1.649562X8X22.500000*%
%ADD14P,1.649562X8X112.500000*%


D10*
X25400Y1231900D03*
X520700Y1231900D03*
X520700Y25400D03*
X25400Y25400D03*
X25400Y749300D03*
X520700Y749300D03*
D11*
X482600Y337740D02*
X482600Y322660D01*
X508000Y322660D02*
X508000Y337740D01*
D12*
X495300Y437896D02*
X495300Y451104D01*
X469900Y451104D02*
X469900Y437896D01*
X50800Y450596D02*
X50800Y463804D01*
X25400Y463804D02*
X25400Y450596D01*
D13*
X444500Y901700D03*
X520700Y901700D03*
X101600Y952500D03*
X177800Y952500D03*
D14*
X88900Y419100D03*
X88900Y495300D03*
D13*
X444500Y863600D03*
X520700Y863600D03*
D14*
X431800Y406400D03*
X431800Y482600D03*
D11*
X241300Y1008460D02*
X241300Y1023540D01*
X266700Y1023540D02*
X266700Y1008460D01*
X292100Y1008460D02*
X292100Y1023540D01*
X63500Y1160860D02*
X63500Y1175940D01*
X88900Y1175940D02*
X88900Y1160860D01*
X114300Y1160860D02*
X114300Y1175940D01*
X139700Y1175940D02*
X139700Y1160860D01*
X38100Y261540D02*
X38100Y246460D01*
X63500Y246460D02*
X63500Y261540D01*
X38100Y322660D02*
X38100Y337740D01*
X63500Y337740D02*
X63500Y322660D01*
X221060Y711200D02*
X236140Y711200D01*
X236140Y685800D02*
X221060Y685800D01*
X221060Y660400D02*
X236140Y660400D01*
X236140Y635000D02*
X221060Y635000D01*
X221060Y609600D02*
X236140Y609600D01*
X236140Y584200D02*
X221060Y584200D01*
X221060Y558800D02*
X236140Y558800D01*
X236140Y533400D02*
X221060Y533400D01*
X221060Y508000D02*
X236140Y508000D01*
X236140Y482600D02*
X221060Y482600D01*
X221060Y457200D02*
X236140Y457200D01*
X297260Y711200D02*
X312340Y711200D01*
X312340Y685800D02*
X297260Y685800D01*
X297260Y660400D02*
X312340Y660400D01*
X312340Y635000D02*
X297260Y635000D01*
X297260Y609600D02*
X312340Y609600D01*
X312340Y584200D02*
X297260Y584200D01*
X297260Y558800D02*
X312340Y558800D01*
X312340Y533400D02*
X297260Y533400D01*
X297260Y508000D02*
X312340Y508000D01*
X312340Y482600D02*
X297260Y482600D01*
X297260Y457200D02*
X312340Y457200D01*
X368300Y1008460D02*
X368300Y1023540D01*
X393700Y1023540D02*
X393700Y1008460D01*
X419100Y1008460D02*
X419100Y1023540D01*
X482600Y261540D02*
X482600Y246460D01*
X508000Y246460D02*
X508000Y261540D01*
X114300Y1008460D02*
X114300Y1023540D01*
X139700Y1023540D02*
X139700Y1008460D01*
X165100Y1008460D02*
X165100Y1023540D01*
X63500Y667940D02*
X63500Y652860D01*
X88900Y652860D02*
X88900Y667940D01*
X114300Y667940D02*
X114300Y652860D01*
X406400Y652860D02*
X406400Y667940D01*
X431800Y667940D02*
X431800Y652860D01*
X457200Y652860D02*
X457200Y667940D01*
X393700Y1160860D02*
X393700Y1175940D01*
X419100Y1175940D02*
X419100Y1160860D01*
X444500Y1160860D02*
X444500Y1175940D01*
X469900Y1175940D02*
X469900Y1160860D01*
X228600Y1160860D02*
X228600Y1175940D01*
X254000Y1175940D02*
X254000Y1160860D01*
X279400Y1160860D02*
X279400Y1175940D01*
X304800Y1175940D02*
X304800Y1160860D01*
M02*
